<svg preserveAspectRatio="none" width="100%" height="100%" overflow="visible" style="display: block;" viewBox="0 0 54 54" fill="none" xmlns="http://www.w3.org/2000/svg">
<g id="Group 296682">
<rect id="Rectangle 14389" width="36.356" height="53.9994" fill="var(--fill-0, white)"/>
<g id="Group 296669">
<path id="Subtract" d="M53.9997 30.0451C52.0015 37.8082 44.9542 43.5439 36.5671 43.5441C28.1799 43.5441 21.1328 37.8082 19.1345 30.0451L53.9997 30.0451Z" fill="var(--fill-0, white)"/>
<path id="Subtract_2" d="M53.9991 30.0445C52.0008 22.2812 44.9537 16.5446 36.5665 16.5445C28.1793 16.5445 21.1323 22.2811 19.1339 30.0445L53.9991 30.0445Z" fill="var(--fill-0, white)"/>
</g>
<g id="Group 296663">
<path id="Subtract_3" d="M36.3572 43.5416C36.2737 43.5427 36.19 43.5445 36.1062 43.5445C27.7189 43.5444 20.6721 37.8076 18.6736 30.0445H36.3572V43.5416Z" fill="var(--fill-0, #1E1E1E)"/>
<path id="Subtract_4" d="M36.3572 16.5484C36.2738 16.5473 36.1899 16.5445 36.1062 16.5445C27.7187 16.5447 20.6709 22.2812 18.6726 30.0445H36.3572V16.5484Z" fill="var(--fill-0, #1E1E1E)"/>
</g>
<path id="Subtract_5" d="M36.3572 36.7923C32.5996 36.6669 29.5937 33.6955 29.5935 30.0453C29.5935 26.3949 32.5994 23.4217 36.3572 23.2963V36.7923Z" fill="var(--fill-0, white)"/>
<path id="Subtract_6" d="M36.3569 23.2978C40.1143 23.4236 43.1205 26.3947 43.1205 30.0449C43.1204 33.6951 40.1143 36.6672 36.3569 36.793L36.3569 23.2978Z" fill="var(--fill-0, #1E1E1E)"/>
</g>
</svg>
