<svg preserveAspectRatio="none" width="100%" height="100%" overflow="visible" style="display: block;" viewBox="0 0 55 53" fill="none" xmlns="http://www.w3.org/2000/svg">
<g id="Group 296686">
<g id="Group 296683">
<rect id="Rectangle 14414" width="52.2688" height="7.63047" transform="matrix(2.18557e-08 1 1 -2.18557e-08 23.6824 0)" fill="var(--fill-0, white)"/>
<path id="Vector 1" d="M17.9598 48.6442L27.3072 39.2968L36.6545 48.6442" stroke="var(--stroke-0, white)" stroke-width="6.10438"/>
<path id="Vector 2" d="M36.6545 3.81529L27.3071 13.1626L17.9598 3.81529" stroke="var(--stroke-0, white)" stroke-width="6.10438"/>
</g>
<g id="Group 296684">
<rect id="Rectangle 14414_2" width="52.2688" height="7.63048" transform="matrix(-0.866025 0.5 0.5 0.866025 48.1278 9.92829)" fill="var(--fill-0, white)"/>
<path id="Vector 1_2" d="M3.13906 29.2943L15.9078 32.7157L12.4864 45.4844" stroke="var(--stroke-0, white)" stroke-width="6.10438"/>
<path id="Vector 2_2" d="M51.3095 23.0699L38.5408 19.6485L41.9622 6.8798" stroke="var(--stroke-0, white)" stroke-width="6.10438"/>
</g>
<g id="Group 296685">
<rect id="Rectangle 14414_3" width="52.2688" height="7.63047" transform="matrix(-0.866025 -0.5 -0.5 0.866025 51.752 36.0626)" fill="var(--fill-0, white)"/>
<path id="Vector 1_3" d="M12.4861 6.78432L15.9075 19.553L3.13878 22.9744" stroke="var(--stroke-0, white)" stroke-width="6.10438"/>
<path id="Vector 2_3" d="M41.9619 45.3889L38.5406 32.6202L51.3093 29.1988" stroke="var(--stroke-0, white)" stroke-width="6.10438"/>
</g>
<circle id="Ellipse 877" cx="27.3067" cy="26.1343" r="4.76905" fill="var(--fill-0, #1E1E1E)"/>
</g>
</svg>
