<svg preserveAspectRatio="none" width="100%" height="100%" overflow="visible" style="display: block;" viewBox="0 0 140 81" fill="none" xmlns="http://www.w3.org/2000/svg">
<g id="Frame 427319618">
<path id="O" d="M139.332 39.5374C139.332 65.2618 121.415 80.6764 69.3657 80.6764C17.3165 80.6764 6.86646e-05 65.2618 6.86646e-05 39.5374C6.86646e-05 13.2125 19.9189 0 69.3657 0C118.913 0 139.332 13.2125 139.332 39.5374Z" fill="var(--fill-0, white)"/>
<g id="Vector">
<path d="M89.3649 59.5V55.8187L73.141 39.9996L89.3649 24.1813V20.5H85.5892L69.3653 36.3183L53.1414 20.5H49.3657V24.1813L65.5896 40.0004L49.3657 55.8187V59.5H53.1414L69.3653 43.6817L85.5892 59.5H89.3649Z" fill="var(--fill-0, black)"/>
<path d="M69.3653 24.3672L73.3317 20.5H80.1534L69.3645 31.0184L58.5765 20.5H65.399L69.3653 24.3672Z" fill="var(--fill-0, black)"/>
<path d="M69.3661 48.9809L80.1542 59.4992H73.3332L69.3669 55.6321L65.4006 59.4992H58.578L69.3661 48.9809Z" fill="var(--fill-0, black)"/>
<path d="M85.3994 39.9996L89.3657 43.8668V50.5172L78.5777 39.9989L89.3657 29.4805V36.1324L85.3994 39.9996Z" fill="var(--fill-0, black)"/>
<path d="M60.1538 39.9996L49.3657 50.518V43.8676L53.3321 40.0004L49.3657 36.1332V29.4813L60.1538 39.9996Z" fill="var(--fill-0, black)"/>
</g>
</g>
</svg>
