<svg xmlns="http://www.w3.org/2000/svg" width="16" height="16"><g data-name="Grupo 12245"><path fill="#fff" d="M0 0h15.965v15.965H0z" data-name="Rectángulo 2598"/><path d="M14.49 0 8 6.49 1.51 0H0v1.51L6.49 8 0 14.49V16h1.51L8 9.51 14.49 16H16v-1.51L9.51 8 16 1.51V0Z" data-name="Trazado 10174"/><path d="m9.399 0-1.4 1.4L6.601 0H3.684L8 4.315 12.315 0Z" data-name="Trazado 10175"/><path d="M3.684 15.999h2.917l1.4-1.4 1.4 1.4h2.917l-4.315-4.315Z" data-name="Trazado 10176"/><path d="m14.602 8 1.4-1.4V3.684L11.687 8l4.315 4.315V9.399Z" data-name="Trazado 10177"/><path d="m0 6.601 1.4 1.4L0 9.399v2.917l4.315-4.315L0 3.684Z" data-name="Trazado 10178"/></g></svg>